<mxfile host="Electron" agent="Mozilla/5.0 (Windows NT 10.0; Win64; x64) AppleWebKit/537.36 (KHTML, like Gecko) draw.io/24.7.17 Chrome/128.0.6613.36 Electron/32.0.1 Safari/537.36" version="24.7.17">
  <diagram id="C5RBs43oDa-KdzZeNtuy" name="Page-1">
    <mxGraphModel dx="1036" dy="606" grid="1" gridSize="10" guides="1" tooltips="1" connect="1" arrows="1" fold="1" page="0" pageScale="1" pageWidth="827" pageHeight="1169" background="none" math="0" shadow="1">
      <root>
        <mxCell id="WIyWlLk6GJQsqaUBKTNV-0" />
        <mxCell id="WIyWlLk6GJQsqaUBKTNV-1" parent="WIyWlLk6GJQsqaUBKTNV-0" />
        <mxCell id="Ce32ohXWRdKx9LQnai_2-7" style="edgeStyle=orthogonalEdgeStyle;rounded=0;orthogonalLoop=1;jettySize=auto;html=1;exitX=0.5;exitY=1;exitDx=0;exitDy=0;entryX=0.5;entryY=0;entryDx=0;entryDy=0;" parent="WIyWlLk6GJQsqaUBKTNV-1" source="Ce32ohXWRdKx9LQnai_2-0" target="Ce32ohXWRdKx9LQnai_2-4" edge="1">
          <mxGeometry relative="1" as="geometry" />
        </mxCell>
        <mxCell id="Ce32ohXWRdKx9LQnai_2-0" value="FillInForm" style="rounded=0;whiteSpace=wrap;html=1;fillColor=#dae8fc;strokeColor=#6c8ebf;" parent="WIyWlLk6GJQsqaUBKTNV-1" vertex="1">
          <mxGeometry x="60" y="100" width="150" height="40" as="geometry" />
        </mxCell>
        <mxCell id="Ce32ohXWRdKx9LQnai_2-10" style="edgeStyle=orthogonalEdgeStyle;rounded=0;orthogonalLoop=1;jettySize=auto;html=1;" parent="WIyWlLk6GJQsqaUBKTNV-1" source="Ce32ohXWRdKx9LQnai_2-3" target="Ce32ohXWRdKx9LQnai_2-8" edge="1">
          <mxGeometry relative="1" as="geometry">
            <Array as="points">
              <mxPoint x="475" y="145" />
            </Array>
          </mxGeometry>
        </mxCell>
        <mxCell id="Ce32ohXWRdKx9LQnai_2-12" style="edgeStyle=orthogonalEdgeStyle;rounded=0;orthogonalLoop=1;jettySize=auto;html=1;entryX=0.56;entryY=0.038;entryDx=0;entryDy=0;entryPerimeter=0;" parent="WIyWlLk6GJQsqaUBKTNV-1" source="Ce32ohXWRdKx9LQnai_2-3" target="Ce32ohXWRdKx9LQnai_2-13" edge="1">
          <mxGeometry relative="1" as="geometry">
            <mxPoint x="640" y="250" as="targetPoint" />
            <Array as="points">
              <mxPoint x="643" y="145" />
            </Array>
          </mxGeometry>
        </mxCell>
        <mxCell id="Ce32ohXWRdKx9LQnai_2-3" value="IsAuthenticated" style="rhombus;whiteSpace=wrap;html=1;fillColor=#f5f5f5;fontColor=#333333;strokeColor=#666666;rounded=0;" parent="WIyWlLk6GJQsqaUBKTNV-1" vertex="1">
          <mxGeometry x="510" y="100" width="90" height="90" as="geometry" />
        </mxCell>
        <mxCell id="Ce32ohXWRdKx9LQnai_2-6" style="edgeStyle=orthogonalEdgeStyle;rounded=0;orthogonalLoop=1;jettySize=auto;html=1;exitX=1;exitY=0.5;exitDx=0;exitDy=0;entryX=0;entryY=0;entryDx=0;entryDy=0;" parent="WIyWlLk6GJQsqaUBKTNV-1" source="Ce32ohXWRdKx9LQnai_2-4" target="Ce32ohXWRdKx9LQnai_2-3" edge="1">
          <mxGeometry relative="1" as="geometry">
            <Array as="points">
              <mxPoint x="280" y="200" />
              <mxPoint x="280" y="123" />
            </Array>
          </mxGeometry>
        </mxCell>
        <mxCell id="Ce32ohXWRdKx9LQnai_2-4" value="Submit" style="rounded=0;whiteSpace=wrap;html=1;fillColor=#dae8fc;strokeColor=#6c8ebf;" parent="WIyWlLk6GJQsqaUBKTNV-1" vertex="1">
          <mxGeometry x="60" y="180" width="150" height="40" as="geometry" />
        </mxCell>
        <mxCell id="Ce32ohXWRdKx9LQnai_2-26" style="edgeStyle=orthogonalEdgeStyle;rounded=0;orthogonalLoop=1;jettySize=auto;html=1;exitX=0.5;exitY=1;exitDx=0;exitDy=0;entryX=0.5;entryY=1;entryDx=0;entryDy=0;" parent="WIyWlLk6GJQsqaUBKTNV-1" source="Ce32ohXWRdKx9LQnai_2-8" target="Ce32ohXWRdKx9LQnai_2-23" edge="1">
          <mxGeometry relative="1" as="geometry">
            <Array as="points">
              <mxPoint x="475" y="540" />
              <mxPoint x="270" y="540" />
              <mxPoint x="270" y="370" />
              <mxPoint x="135" y="370" />
            </Array>
          </mxGeometry>
        </mxCell>
        <mxCell id="Ce32ohXWRdKx9LQnai_2-8" value="ErrorResponse" style="rounded=0;whiteSpace=wrap;html=1;fillColor=#f8cecc;strokeColor=#b85450;" parent="WIyWlLk6GJQsqaUBKTNV-1" vertex="1">
          <mxGeometry x="410" y="480" width="130" height="40" as="geometry" />
        </mxCell>
        <mxCell id="Ce32ohXWRdKx9LQnai_2-11" value="No" style="text;html=1;align=center;verticalAlign=middle;whiteSpace=wrap;rounded=0;" parent="WIyWlLk6GJQsqaUBKTNV-1" vertex="1">
          <mxGeometry x="460" y="150" width="60" height="30" as="geometry" />
        </mxCell>
        <mxCell id="Ce32ohXWRdKx9LQnai_2-15" style="edgeStyle=orthogonalEdgeStyle;rounded=0;orthogonalLoop=1;jettySize=auto;html=1;exitX=0.5;exitY=1;exitDx=0;exitDy=0;entryX=0.5;entryY=0;entryDx=0;entryDy=0;" parent="WIyWlLk6GJQsqaUBKTNV-1" source="Ce32ohXWRdKx9LQnai_2-13" target="Ce32ohXWRdKx9LQnai_2-14" edge="1">
          <mxGeometry relative="1" as="geometry">
            <Array as="points">
              <mxPoint x="635" y="330" />
              <mxPoint x="555" y="330" />
            </Array>
          </mxGeometry>
        </mxCell>
        <mxCell id="Ce32ohXWRdKx9LQnai_2-13" value="UpdateDatabase" style="rounded=0;whiteSpace=wrap;html=1;fillColor=#dae8fc;strokeColor=#6c8ebf;" parent="WIyWlLk6GJQsqaUBKTNV-1" vertex="1">
          <mxGeometry x="570" y="260" width="130" height="40" as="geometry" />
        </mxCell>
        <mxCell id="Ce32ohXWRdKx9LQnai_2-21" style="edgeStyle=orthogonalEdgeStyle;rounded=0;orthogonalLoop=1;jettySize=auto;html=1;entryX=0.5;entryY=0;entryDx=0;entryDy=0;" parent="WIyWlLk6GJQsqaUBKTNV-1" source="Ce32ohXWRdKx9LQnai_2-14" target="Ce32ohXWRdKx9LQnai_2-20" edge="1">
          <mxGeometry relative="1" as="geometry">
            <Array as="points">
              <mxPoint x="645" y="390" />
            </Array>
          </mxGeometry>
        </mxCell>
        <mxCell id="Ce32ohXWRdKx9LQnai_2-14" value="DbError" style="rhombus;whiteSpace=wrap;html=1;fillColor=#f5f5f5;fontColor=#333333;strokeColor=#666666;rounded=0;" parent="WIyWlLk6GJQsqaUBKTNV-1" vertex="1">
          <mxGeometry x="515" y="350" width="80" height="80" as="geometry" />
        </mxCell>
        <mxCell id="Ce32ohXWRdKx9LQnai_2-17" value="Yes" style="text;html=1;align=center;verticalAlign=middle;whiteSpace=wrap;rounded=0;" parent="WIyWlLk6GJQsqaUBKTNV-1" vertex="1">
          <mxGeometry x="580" y="150" width="60" height="30" as="geometry" />
        </mxCell>
        <mxCell id="Ce32ohXWRdKx9LQnai_2-19" style="edgeStyle=orthogonalEdgeStyle;rounded=0;orthogonalLoop=1;jettySize=auto;html=1;exitX=0.75;exitY=1;exitDx=0;exitDy=0;entryX=0.5;entryY=0;entryDx=0;entryDy=0;" parent="WIyWlLk6GJQsqaUBKTNV-1" source="Ce32ohXWRdKx9LQnai_2-18" target="Ce32ohXWRdKx9LQnai_2-8" edge="1">
          <mxGeometry relative="1" as="geometry">
            <Array as="points">
              <mxPoint x="475" y="390" />
            </Array>
          </mxGeometry>
        </mxCell>
        <mxCell id="Ce32ohXWRdKx9LQnai_2-18" value="Yes" style="text;html=1;align=center;verticalAlign=middle;whiteSpace=wrap;rounded=0;" parent="WIyWlLk6GJQsqaUBKTNV-1" vertex="1">
          <mxGeometry x="470" y="360" width="60" height="30" as="geometry" />
        </mxCell>
        <mxCell id="Ce32ohXWRdKx9LQnai_2-25" style="edgeStyle=orthogonalEdgeStyle;rounded=0;orthogonalLoop=1;jettySize=auto;html=1;exitX=0.5;exitY=1;exitDx=0;exitDy=0;entryX=0.5;entryY=1;entryDx=0;entryDy=0;" parent="WIyWlLk6GJQsqaUBKTNV-1" source="Ce32ohXWRdKx9LQnai_2-20" target="Ce32ohXWRdKx9LQnai_2-24" edge="1">
          <mxGeometry relative="1" as="geometry">
            <Array as="points">
              <mxPoint x="645" y="580" />
              <mxPoint x="135" y="580" />
            </Array>
          </mxGeometry>
        </mxCell>
        <mxCell id="Ce32ohXWRdKx9LQnai_2-20" value="ReturnCreatedProject" style="rounded=0;whiteSpace=wrap;html=1;fillColor=#d5e8d4;strokeColor=#82b366;" parent="WIyWlLk6GJQsqaUBKTNV-1" vertex="1">
          <mxGeometry x="580" y="480" width="130" height="40" as="geometry" />
        </mxCell>
        <mxCell id="Ce32ohXWRdKx9LQnai_2-22" value="No" style="text;html=1;align=center;verticalAlign=middle;whiteSpace=wrap;rounded=0;" parent="WIyWlLk6GJQsqaUBKTNV-1" vertex="1">
          <mxGeometry x="580" y="360" width="60" height="30" as="geometry" />
        </mxCell>
        <mxCell id="Ce32ohXWRdKx9LQnai_2-23" value="ErrorMessageView" style="rounded=0;whiteSpace=wrap;html=1;fillColor=#dae8fc;strokeColor=#6c8ebf;" parent="WIyWlLk6GJQsqaUBKTNV-1" vertex="1">
          <mxGeometry x="60" y="300" width="150" height="40" as="geometry" />
        </mxCell>
        <mxCell id="Ce32ohXWRdKx9LQnai_2-24" value="CreatedProjectView" style="rounded=0;whiteSpace=wrap;html=1;fillColor=#dae8fc;strokeColor=#6c8ebf;" parent="WIyWlLk6GJQsqaUBKTNV-1" vertex="1">
          <mxGeometry x="60" y="390" width="150" height="40" as="geometry" />
        </mxCell>
        <mxCell id="Ce32ohXWRdKx9LQnai_2-27" value="" style="endArrow=none;dashed=1;html=1;dashPattern=1 3;strokeWidth=2;rounded=0;" parent="WIyWlLk6GJQsqaUBKTNV-1" edge="1">
          <mxGeometry width="50" height="50" relative="1" as="geometry">
            <mxPoint x="360" y="40" as="sourcePoint" />
            <mxPoint x="360" y="610" as="targetPoint" />
          </mxGeometry>
        </mxCell>
        <mxCell id="Ce32ohXWRdKx9LQnai_2-28" value="&lt;h1 style=&quot;margin-top: 0px;&quot;&gt;User&lt;/h1&gt;" style="text;html=1;whiteSpace=wrap;overflow=hidden;rounded=0;" parent="WIyWlLk6GJQsqaUBKTNV-1" vertex="1">
          <mxGeometry x="60" y="30" width="180" height="50" as="geometry" />
        </mxCell>
        <mxCell id="Ce32ohXWRdKx9LQnai_2-30" value="&lt;h1 style=&quot;margin-top: 0px;&quot;&gt;Software&lt;/h1&gt;" style="text;html=1;whiteSpace=wrap;overflow=hidden;rounded=0;" parent="WIyWlLk6GJQsqaUBKTNV-1" vertex="1">
          <mxGeometry x="390" y="30" width="180" height="50" as="geometry" />
        </mxCell>
        <mxCell id="Ce32ohXWRdKx9LQnai_2-32" style="edgeStyle=orthogonalEdgeStyle;orthogonalLoop=1;jettySize=auto;html=1;entryX=0;entryY=0.5;entryDx=0;entryDy=0;" parent="WIyWlLk6GJQsqaUBKTNV-1" source="Ce32ohXWRdKx9LQnai_2-31" target="Ce32ohXWRdKx9LQnai_2-0" edge="1">
          <mxGeometry relative="1" as="geometry" />
        </mxCell>
        <mxCell id="Ce32ohXWRdKx9LQnai_2-31" value="" style="shape=waypoint;sketch=0;fillStyle=solid;size=6;pointerEvents=1;points=[];fillColor=none;resizable=0;rotatable=0;perimeter=centerPerimeter;snapToPoint=1;" parent="WIyWlLk6GJQsqaUBKTNV-1" vertex="1">
          <mxGeometry y="110" width="20" height="20" as="geometry" />
        </mxCell>
        <mxCell id="Ce32ohXWRdKx9LQnai_2-33" value="" style="shape=waypoint;sketch=0;fillStyle=solid;size=6;pointerEvents=1;points=[];fillColor=none;resizable=0;rotatable=0;perimeter=centerPerimeter;snapToPoint=1;" parent="WIyWlLk6GJQsqaUBKTNV-1" vertex="1">
          <mxGeometry y="310" width="20" height="20" as="geometry" />
        </mxCell>
        <mxCell id="Ce32ohXWRdKx9LQnai_2-34" value="" style="shape=waypoint;sketch=0;fillStyle=solid;size=6;pointerEvents=1;points=[];fillColor=none;resizable=0;rotatable=0;perimeter=centerPerimeter;snapToPoint=1;" parent="WIyWlLk6GJQsqaUBKTNV-1" vertex="1">
          <mxGeometry y="400" width="20" height="20" as="geometry" />
        </mxCell>
        <mxCell id="Ce32ohXWRdKx9LQnai_2-35" style="edgeStyle=orthogonalEdgeStyle;orthogonalLoop=1;jettySize=auto;html=1;exitX=0;exitY=0.5;exitDx=0;exitDy=0;entryX=0.836;entryY=0.588;entryDx=0;entryDy=0;entryPerimeter=0;" parent="WIyWlLk6GJQsqaUBKTNV-1" source="Ce32ohXWRdKx9LQnai_2-24" target="Ce32ohXWRdKx9LQnai_2-34" edge="1">
          <mxGeometry relative="1" as="geometry" />
        </mxCell>
        <mxCell id="Ce32ohXWRdKx9LQnai_2-36" style="edgeStyle=orthogonalEdgeStyle;orthogonalLoop=1;jettySize=auto;html=1;exitX=0;exitY=0.5;exitDx=0;exitDy=0;entryX=0.836;entryY=0.497;entryDx=0;entryDy=0;entryPerimeter=0;" parent="WIyWlLk6GJQsqaUBKTNV-1" source="Ce32ohXWRdKx9LQnai_2-23" target="Ce32ohXWRdKx9LQnai_2-33" edge="1">
          <mxGeometry relative="1" as="geometry" />
        </mxCell>
      </root>
    </mxGraphModel>
  </diagram>
</mxfile>
